<?xml version="1.0" encoding="utf-8"?>
<!-- Generator: Adobe Illustrator 16.0.0, SVG Export Plug-In . SVG Version: 6.00 Build 0)  -->
<!DOCTYPE svg PUBLIC "-//W3C//DTD SVG 1.1//EN" "http://www.w3.org/Graphics/SVG/1.1/DTD/svg11.dtd">
<svg version="1.1" id="Layer_1" xmlns="http://www.w3.org/2000/svg" xmlns:xlink="http://www.w3.org/1999/xlink" x="0px" y="0px"
	 width="841.889px" height="267.005px" viewBox="0 0 841.889 267.005" enable-background="new 0 0 841.889 267.005"
	 xml:space="preserve">
<rect fill="#454546" width="841.889" height="267.006"/>
<g>
	<path fill="#4F5150" stroke="#4F5150" stroke-miterlimit="10" d="M707.258,238.93l-6.19-49.09h1.565l5.406,42.971
		c0.901-7.209,1.803-14.381,2.704-21.521c0.9-7.137,1.802-14.285,2.703-21.449h1.493l5.479,43.113
		c0.9-7.018,1.813-14.217,2.74-21.592c0.924-7.373,1.836-14.549,2.738-21.521h1.422l-6.189,49.09h-1.494l-5.478-42.9
		c-0.95,7.115-1.861,14.266-2.739,21.451c-0.878,7.184-1.768,14.336-2.666,21.449H707.258z"/>
	<path fill="#4F5150" stroke="#4F5150" stroke-miterlimit="10" d="M745.566,237.293c-1.447,1.092-3.238,1.637-5.371,1.637
		c-2.135,0-3.938-0.545-5.408-1.637s-2.205-2.467-2.205-4.127v-24.971c0-0.758,0.202-1.494,0.605-2.205
		c0.401-0.711,0.936-1.326,1.6-1.85c0.664-0.521,1.459-0.936,2.384-1.246c0.925-0.307,1.933-0.461,3.024-0.461
		c1.041,0,2.027,0.154,2.951,0.461c0.926,0.311,1.718,0.725,2.383,1.246c0.665,0.523,1.197,1.139,1.602,1.85
		c0.402,0.711,0.605,1.447,0.605,2.205v24.971C747.736,234.826,747.013,236.201,745.566,237.293z M735.89,236.439
		c1.163,0.9,2.598,1.352,4.306,1.352c1.659,0,3.082-0.451,4.268-1.352s1.778-1.992,1.778-3.273v-24.971
		c0-1.232-0.593-2.312-1.778-3.236s-2.608-1.389-4.268-1.389c-1.708,0-3.143,0.465-4.306,1.389
		c-1.161,0.924-1.742,2.004-1.742,3.236v24.971C734.147,234.447,734.729,235.539,735.89,236.439z"/>
	<path fill="#4F5150" stroke="#4F5150" stroke-miterlimit="10" d="M754.779,238.93v-4.127h1.494v4.127H754.779z"/>
	<path fill="#4F5150" stroke="#4F5150" stroke-miterlimit="10" d="M776.299,237.293c-1.447,1.092-3.238,1.637-5.371,1.637
		c-2.135,0-3.938-0.545-5.406-1.637c-1.473-1.092-2.206-2.467-2.206-4.127v-37.562c0-1.611,0.733-2.977,2.206-4.09
		c1.469-1.113,3.271-1.674,5.406-1.674c1.042,0,2.027,0.156,2.951,0.463c0.926,0.311,1.718,0.725,2.384,1.246
		c0.664,0.521,1.196,1.127,1.601,1.814c0.402,0.688,0.605,1.434,0.605,2.24v3.77h-1.495v-3.77c0-1.281-0.593-2.371-1.778-3.271
		s-2.608-1.354-4.268-1.354c-1.708,0-3.143,0.453-4.306,1.354c-1.161,0.9-1.742,1.99-1.742,3.271v37.562
		c0,1.281,0.581,2.373,1.742,3.273c1.163,0.9,2.598,1.352,4.306,1.352c1.659,0,3.082-0.451,4.268-1.352s1.778-1.992,1.778-3.273
		v-3.77h1.495v3.77C778.469,234.826,777.745,236.201,776.299,237.293z"/>
	<path fill="#4F5150" stroke="#4F5150" stroke-miterlimit="10" d="M798.565,237.293c-1.448,1.092-3.235,1.637-5.372,1.637
		c-2.135,0-3.936-0.545-5.406-1.637c-1.47-1.092-2.205-2.467-2.205-4.127v-24.971c0-0.758,0.201-1.494,0.604-2.205
		s0.937-1.326,1.601-1.85c0.664-0.521,1.459-0.936,2.384-1.246c0.924-0.307,1.932-0.461,3.022-0.461
		c1.043,0,2.028,0.154,2.952,0.461c0.927,0.311,1.72,0.725,2.385,1.246c0.663,0.523,1.196,1.139,1.601,1.85
		c0.403,0.711,0.604,1.447,0.604,2.205v24.971C800.734,234.826,800.013,236.201,798.565,237.293z M788.89,236.439
		c1.161,0.9,2.597,1.352,4.304,1.352c1.66,0,3.082-0.451,4.27-1.352c1.184-0.9,1.778-1.992,1.778-3.273v-24.971
		c0-1.232-0.595-2.312-1.778-3.236c-1.188-0.924-2.609-1.389-4.27-1.389c-1.707,0-3.143,0.465-4.304,1.389
		c-1.163,0.924-1.742,2.004-1.742,3.236v24.971C787.147,234.447,787.727,235.539,788.89,236.439z"/>
	<path fill="#4F5150" stroke="#4F5150" stroke-miterlimit="10" d="M807.777,238.93v-4.127h1.495v4.127H807.777z"/>
</g>
<path fill-rule="evenodd" clip-rule="evenodd" fill="none" stroke="#6B6B6B" stroke-miterlimit="10" stroke-dasharray="2,2" d="
	M4.076,202.16c40,16,89,31,132,20c33-8,56-33,79-54c29-26,61-48,98-59c31-10,103-21,97,34c-3,30-81,58-87,21c-6-45,68-69,120-56
	c14.84,3.709,29,9,43,14c51,16,104,27,158,32c57,6,114-1,166-27c10.92-5.748,21.842-12.486,31.812-20.406"/>
</svg>
