<?xml version="1.0" encoding="utf-8"?>
<!-- Generator: Adobe Illustrator 16.0.0, SVG Export Plug-In . SVG Version: 6.00 Build 0)  -->
<!DOCTYPE svg PUBLIC "-//W3C//DTD SVG 1.1//EN" "http://www.w3.org/Graphics/SVG/1.1/DTD/svg11.dtd">
<svg version="1.1" id="Layer_1" xmlns="http://www.w3.org/2000/svg" xmlns:xlink="http://www.w3.org/1999/xlink" x="0px" y="0px"
	 width="295.919px" height="306.576px" viewBox="0 0 295.919 306.576" enable-background="new 0 0 295.919 306.576"
	 xml:space="preserve">
<g>
	<g>
		<path fill="#FFFFFF" d="M92.041,169.252l-7.434-58.956h1.879l6.493,51.607c1.083-8.658,2.165-17.273,3.248-25.848
			c1.081-8.572,2.164-17.158,3.246-25.76h1.794l6.579,51.777c1.082-8.429,2.179-17.073,3.291-25.931
			c1.109-8.856,2.205-17.474,3.289-25.847h1.707l-7.433,58.956h-1.795l-6.579-51.522c-1.14,8.545-2.235,17.131-3.289,25.762
			c-1.055,8.628-2.122,17.216-3.202,25.761H92.041z"/>
		<path fill="#FFFFFF" d="M138.05,167.286c-1.738,1.312-3.889,1.966-6.451,1.966c-2.563,0-4.729-0.654-6.494-1.966
			c-1.767-1.312-2.648-2.963-2.648-4.957v-29.988c0-0.91,0.242-1.795,0.728-2.648c0.481-0.854,1.123-1.596,1.921-2.223
			c0.798-0.626,1.752-1.123,2.862-1.496c1.111-0.369,2.322-0.555,3.632-0.555c1.251,0,2.437,0.186,3.546,0.555
			c1.11,0.373,2.062,0.87,2.861,1.496c0.798,0.627,1.438,1.368,1.923,2.223c0.483,0.854,0.727,1.738,0.727,2.648v29.988
			C140.655,164.323,139.787,165.975,138.05,167.286z M126.428,166.261c1.396,1.082,3.12,1.623,5.171,1.623
			c1.993,0,3.702-0.541,5.126-1.623s2.136-2.393,2.136-3.932v-29.988c0-1.48-0.712-2.778-2.136-3.889s-3.133-1.666-5.126-1.666
			c-2.051,0-3.774,0.556-5.171,1.666c-1.395,1.11-2.092,2.408-2.092,3.889v29.988C124.336,163.868,125.033,165.179,126.428,166.261z
			"/>
		<path fill="#FFFFFF" d="M149.114,169.252v-4.956h1.795v4.956H149.114z"/>
		<path fill="#FFFFFF" d="M174.959,167.286c-1.738,1.312-3.889,1.966-6.451,1.966c-2.563,0-4.729-0.654-6.492-1.966
			c-1.769-1.312-2.648-2.963-2.648-4.957v-45.111c0-1.937,0.88-3.575,2.648-4.912c1.764-1.338,3.929-2.01,6.492-2.01
			c1.253,0,2.437,0.187,3.546,0.555c1.11,0.373,2.062,0.871,2.862,1.496c0.797,0.627,1.437,1.354,1.922,2.18
			c0.483,0.825,0.727,1.722,0.727,2.691v4.527h-1.795v-4.527c0-1.539-0.712-2.848-2.135-3.931c-1.425-1.081-3.134-1.625-5.127-1.625
			c-2.051,0-3.773,0.544-5.17,1.625c-1.396,1.083-2.093,2.392-2.093,3.931v45.111c0,1.539,0.697,2.85,2.093,3.932
			c1.396,1.082,3.119,1.623,5.17,1.623c1.993,0,3.702-0.541,5.127-1.623c1.423-1.082,2.135-2.393,2.135-3.932v-4.527h1.795v4.527
			C177.564,164.323,176.696,165.975,174.959,167.286z"/>
		<path fill="#FFFFFF" d="M201.701,167.286c-1.738,1.312-3.887,1.966-6.451,1.966s-4.728-0.654-6.493-1.966
			c-1.765-1.312-2.648-2.963-2.648-4.957v-29.988c0-0.91,0.241-1.795,0.726-2.648c0.484-0.854,1.125-1.596,1.923-2.223
			c0.797-0.626,1.752-1.123,2.862-1.496c1.11-0.369,2.32-0.555,3.631-0.555c1.252,0,2.436,0.186,3.545,0.555
			c1.112,0.373,2.065,0.87,2.864,1.496c0.796,0.627,1.437,1.368,1.922,2.223c0.484,0.854,0.726,1.738,0.726,2.648v29.988
			C204.307,164.323,203.439,165.975,201.701,167.286z M190.08,166.261c1.396,1.082,3.119,1.623,5.17,1.623
			c1.992,0,3.701-0.541,5.127-1.623c1.422-1.082,2.136-2.393,2.136-3.932v-29.988c0-1.48-0.714-2.778-2.136-3.889
			c-1.426-1.11-3.135-1.666-5.127-1.666c-2.051,0-3.774,0.556-5.17,1.666s-2.092,2.408-2.092,3.889v29.988
			C187.988,163.868,188.685,165.179,190.08,166.261z"/>
		<path fill="#FFFFFF" d="M212.766,169.252v-4.956h1.795v4.956H212.766z"/>
	</g>
	<g>
		<path fill="#FFFFFF" d="M76.484,196.245l-1.473-11.682h0.372l1.287,10.227c0.214-1.717,0.428-3.423,0.642-5.121
			c0.216-1.699,0.43-3.4,0.645-5.105h0.355l1.305,10.26c0.213-1.669,0.431-3.383,0.65-5.137c0.221-1.756,0.438-3.465,0.652-5.123
			h0.34l-1.475,11.682H79.43l-1.304-10.207c-0.226,1.691-0.442,3.393-0.651,5.104c-0.209,1.709-0.422,3.41-0.636,5.104H76.484z"/>
		<path fill="#FFFFFF" d="M91.526,195.856c-0.345,0.26-0.77,0.389-1.277,0.389s-0.938-0.129-1.287-0.389
			c-0.349-0.258-0.525-0.586-0.525-0.98v-8.94c0-0.382,0.177-0.708,0.525-0.974c0.35-0.266,0.779-0.398,1.287-0.398
			c0.247,0,0.481,0.036,0.703,0.11c0.219,0.073,0.409,0.171,0.566,0.298c0.157,0.123,0.284,0.266,0.381,0.431
			c0.096,0.164,0.145,0.341,0.145,0.533v8.94C92.044,195.271,91.871,195.599,91.526,195.856z M89.225,195.655
			c0.275,0.213,0.619,0.32,1.024,0.32c0.395,0,0.733-0.107,1.015-0.32c0.282-0.217,0.425-0.475,0.425-0.779v-8.94
			c0-0.304-0.143-0.565-0.425-0.778c-0.281-0.215-0.62-0.322-1.015-0.322c-0.405,0-0.749,0.107-1.024,0.322
			c-0.277,0.213-0.415,0.475-0.415,0.778v8.94C88.81,195.181,88.947,195.438,89.225,195.655z"/>
		<path fill="#FFFFFF" d="M99.662,196.245v-11.682h1.643c0.248,0,0.483,0.036,0.702,0.11c0.222,0.073,0.412,0.171,0.576,0.298
			c0.163,0.123,0.294,0.266,0.389,0.431c0.098,0.164,0.145,0.341,0.145,0.533v3.116c0,0.27-0.1,0.513-0.296,0.727
			c-0.198,0.215-0.443,0.384-0.737,0.508c0.294,0.125,0.539,0.295,0.737,0.508c0.196,0.215,0.296,0.457,0.296,0.729v4.723h-0.372
			v-4.723c0-0.305-0.141-0.564-0.424-0.779c-0.283-0.213-0.619-0.321-1.016-0.321h-1.27v5.823H99.662z M101.305,190.151
			c0.396,0,0.732-0.105,1.016-0.313s0.424-0.472,0.424-0.786v-3.116c0-0.304-0.141-0.565-0.424-0.778
			c-0.283-0.215-0.619-0.322-1.016-0.322h-1.27v5.316H101.305z"/>
		<path fill="#FFFFFF" d="M114.004,196.245l-2.896-5.045v5.045h-0.373v-11.682h0.373v5.503l2.896-5.503h0.39l-3.219,6.094
			c0.532,0.916,1.066,1.848,1.609,2.796c0.541,0.948,1.078,1.878,1.609,2.792H114.004z"/>
		<path fill="#FFFFFF" d="M134.531,195.856c-0.345,0.26-0.77,0.389-1.279,0.389c-0.506,0-0.936-0.129-1.285-0.389
			c-0.351-0.258-0.525-0.586-0.525-0.98v-8.94c0-0.382,0.175-0.708,0.525-0.974c0.35-0.266,0.779-0.398,1.285-0.398
			c0.25,0,0.484,0.036,0.703,0.11c0.221,0.073,0.411,0.171,0.568,0.298c0.157,0.123,0.284,0.266,0.381,0.431
			c0.096,0.164,0.143,0.341,0.143,0.533v0.897h-0.354v-0.897c0-0.304-0.143-0.565-0.424-0.778c-0.282-0.215-0.621-0.322-1.018-0.322
			c-0.405,0-0.747,0.107-1.023,0.322c-0.277,0.213-0.414,0.475-0.414,0.778v8.94c0,0.305,0.137,0.562,0.414,0.779
			c0.276,0.213,0.618,0.32,1.023,0.32c0.396,0,0.735-0.107,1.018-0.32c0.281-0.217,0.424-0.475,0.424-0.779v-0.898h0.354v0.898
			C135.047,195.271,134.876,195.599,134.531,195.856z"/>
		<path fill="#FFFFFF" d="M145.385,195.856c-0.345,0.26-0.771,0.389-1.279,0.389c-0.508,0-0.938-0.129-1.286-0.389
			c-0.351-0.258-0.526-0.586-0.526-0.98v-8.94c0-0.382,0.176-0.708,0.526-0.974c0.349-0.266,0.778-0.398,1.286-0.398
			c0.249,0,0.481,0.036,0.703,0.11c0.219,0.073,0.41,0.171,0.567,0.298c0.158,0.123,0.283,0.266,0.382,0.431
			c0.096,0.164,0.144,0.341,0.144,0.533v8.94C145.901,195.271,145.729,195.599,145.385,195.856z M143.08,195.655
			c0.278,0.213,0.62,0.32,1.025,0.32c0.395,0,0.733-0.107,1.016-0.32c0.282-0.217,0.424-0.475,0.424-0.779v-8.94
			c0-0.304-0.142-0.565-0.424-0.778c-0.282-0.215-0.621-0.322-1.016-0.322c-0.405,0-0.747,0.107-1.025,0.322
			c-0.275,0.213-0.413,0.475-0.413,0.778v8.94C142.667,195.181,142.805,195.438,143.08,195.655z"/>
		<path fill="#FFFFFF" d="M153.519,196.28v-11.717h0.34l2.016,10.649c0.325-1.771,0.665-3.548,1.015-5.332s0.688-3.558,1.016-5.317
			h0.322v11.717h-0.34v-9.786c-0.316,1.648-0.626,3.276-0.931,4.884c-0.304,1.609-0.615,3.232-0.93,4.867h-0.305l-1.83-9.769v9.804
			H153.519z"/>
		<path fill="#FFFFFF" d="M165.861,196.245v-11.682h1.643c0.249,0,0.481,0.036,0.703,0.11c0.221,0.073,0.411,0.171,0.576,0.298
			c0.162,0.123,0.292,0.266,0.389,0.431c0.097,0.164,0.143,0.341,0.143,0.533v3.116c0,0.191-0.046,0.369-0.143,0.533
			c-0.097,0.162-0.227,0.307-0.389,0.431c-0.165,0.125-0.355,0.224-0.576,0.296c-0.222,0.074-0.454,0.11-0.703,0.11h-1.27v5.823
			H165.861z M167.504,190.151c0.396,0,0.733-0.105,1.017-0.313c0.281-0.208,0.424-0.472,0.424-0.786v-3.116
			c0-0.304-0.143-0.565-0.424-0.778c-0.283-0.215-0.621-0.322-1.017-0.322h-1.27v5.316H167.504z"/>
		<path fill="#FFFFFF" d="M176.918,191.472c-0.101,0.779-0.201,1.574-0.304,2.387c-0.101,0.812-0.214,1.609-0.338,2.387h-0.391
			l1.643-11.682h0.356l1.624,11.682h-0.355l-0.659-4.773H176.918z M178.477,191.2c-0.067-0.484-0.134-0.941-0.194-1.371
			c-0.062-0.428-0.122-0.848-0.179-1.262c-0.056-0.412-0.114-0.834-0.177-1.27c-0.063-0.435-0.133-0.899-0.213-1.397
			c-0.124,0.905-0.245,1.786-0.363,2.642c-0.118,0.859-0.246,1.744-0.381,2.658H178.477z"/>
		<path fill="#FFFFFF" d="M186.638,196.245v-11.682h0.338l2.914,10.346v-10.346h0.338v11.682h-0.323l-2.896-10.327v10.327H186.638z"
			/>
		<path fill="#FFFFFF" d="M197.828,196.245v-11.699h0.355v11.699H197.828z"/>
		<path fill="#FFFFFF" d="M208.875,195.856c-0.345,0.26-0.77,0.389-1.279,0.389c-0.508,0-0.937-0.129-1.285-0.389
			c-0.351-0.258-0.527-0.586-0.527-0.98v-8.94c0-0.382,0.177-0.708,0.527-0.974c0.349-0.266,0.777-0.398,1.285-0.398
			c0.249,0,0.482,0.036,0.703,0.11c0.221,0.073,0.411,0.171,0.566,0.298c0.159,0.123,0.285,0.266,0.382,0.431
			c0.097,0.164,0.146,0.341,0.146,0.533v8.94C209.393,195.271,209.22,195.599,208.875,195.856z M206.571,195.655
			c0.277,0.213,0.619,0.32,1.024,0.32c0.395,0,0.734-0.107,1.016-0.32c0.283-0.217,0.426-0.475,0.426-0.779v-8.94
			c0-0.304-0.143-0.565-0.426-0.778c-0.281-0.215-0.621-0.322-1.016-0.322c-0.405,0-0.747,0.107-1.024,0.322
			c-0.276,0.213-0.413,0.475-0.413,0.778v8.94C206.158,195.181,206.295,195.438,206.571,195.655z"/>
		<path fill="#FFFFFF" d="M217.011,196.245v-11.682h0.338l2.913,10.346v-10.346h0.339v11.682h-0.323l-2.895-10.327v10.327H217.011z"
			/>
	</g>
</g>
</svg>
