<?xml version="1.0" standalone="no"?>
<!DOCTYPE svg PUBLIC "-//W3C//DTD SVG 20010904//EN"
 "http://www.w3.org/TR/2001/REC-SVG-20010904/DTD/svg10.dtd">
<svg version="1.0" xmlns="http://www.w3.org/2000/svg"
 width="754.000000pt" height="1336.000000pt" viewBox="0 0 754.000000 1336.000000"
 preserveAspectRatio="xMidYMid meet">
<metadata>
Created by potrace 1.15, written by Peter Selinger 2001-2017
</metadata>
<g transform="translate(0.000000,1336.000000) scale(0.100000,-0.100000)"
fill="#000000" stroke="none">
<path d="M0 6680 l0 -6680 1144 0 1143 0 2624 1908 2624 1908 3 4772 2 4772
-3770 0 -3770 0 0 -6680z m7355 6495 l0 -90 -220 0 -220 0 -3 79 c-2 44 -1 85
2 93 5 11 47 13 223 11 l218 -3 0 -90z m-3397 63 c36 -36 -2 -98 -60 -98 -24
0 -28 -4 -28 -30 0 -20 -5 -30 -15 -30 -12 0 -15 16 -15 85 l0 85 53 0 c29 0
58 -5 65 -12z m98 -40 c24 -76 25 -77 49 -12 16 44 27 60 43 62 21 3 22 0 22
-82 0 -70 -3 -86 -15 -86 -12 0 -15 13 -16 58 l-1 57 -20 -58 c-25 -73 -43
-72 -72 3 l-21 55 -3 -57 c-2 -43 -7 -58 -17 -58 -12 0 -15 17 -15 85 0 83 0
85 24 85 21 0 27 -8 42 -52z m2406 27 c8 -18 8 -29 1 -36 -8 -8 -7 -19 3 -37
18 -36 -1 -66 -45 -70 -44 -5 -64 14 -57 52 9 45 9 49 2 67 -10 23 20 49 55
49 22 0 32 -7 41 -25z m-3112 -4680 c5 -13 7 -75 3 -137 -5 -103 -4 -115 13
-130 34 -30 272 -98 454 -130 207 -36 228 -35 546 17 268 44 402 78 581 148
202 79 212 82 230 64 34 -34 -23 -136 -103 -183 -26 -16 -70 -35 -98 -44 l-51
-17 -12 -69 c-17 -96 -32 -378 -41 -791 -9 -367 -11 -383 -53 -383 -26 0 -67
46 -96 109 -25 52 -26 62 -33 345 -4 175 -11 302 -18 318 -17 42 -51 57 -148
68 -132 16 -823 25 -836 12 -16 -16 -86 -204 -108 -292 -11 -41 -35 -165 -54
-276 -32 -192 -49 -248 -71 -241 -20 7 -5 206 26 337 35 150 145 484 166 505
24 25 49 26 339 21 334 -5 533 -19 632 -41 106 -24 103 -13 128 -445 15 -265
22 -319 48 -353 11 -14 16 -15 23 -5 4 7 7 130 5 273 -4 282 11 591 33 720 20
110 19 148 -5 178 -11 14 -20 27 -20 30 0 3 33 13 73 22 39 9 92 25 117 36 83
37 144 119 89 119 -12 0 -92 -31 -178 -69 -199 -89 -273 -108 -581 -146 -69
-8 -170 -22 -225 -31 l-100 -16 -220 36 c-218 36 -399 86 -452 124 -23 17 -57
87 -49 101 7 11 16 178 9 184 -3 4 -35 -20 -72 -52 -313 -277 -349 -305 -500
-386 -69 -36 -161 -93 -205 -126 -45 -32 -92 -66 -104 -75 -29 -20 -21 -28 40
-43 68 -16 129 -14 170 8 21 10 48 16 61 14 13 -3 48 2 77 11 71 21 221 21
261 0 17 -8 37 -30 45 -49 15 -36 19 -125 7 -125 -5 0 -16 27 -26 61 -16 53
-22 62 -54 76 -33 13 -48 13 -152 -2 -64 -9 -158 -25 -210 -36 -51 -10 -110
-19 -130 -19 -34 0 -189 35 -199 45 -11 11 17 48 83 105 49 44 112 83 220 138
174 89 215 123 348 292 112 143 166 200 189 200 10 0 26 -13 36 -29 l17 -28
45 38 c52 45 77 49 90 14z m-740 -2079 c0 -14 122 -961 124 -963 1 -2 28 208
60 465 32 257 60 475 63 485 5 18 28 23 37 9 3 -5 32 -222 66 -482 33 -261 62
-475 63 -477 2 -1 29 203 60 455 32 251 60 470 63 485 7 36 40 33 37 -3 -3
-44 -134 -1084 -139 -1107 -4 -23 -44 -34 -44 -13 0 19 -121 954 -124 957 -1
2 -28 -208 -60 -465 -32 -257 -60 -475 -63 -484 -5 -20 -43 -25 -43 -5 0 6
-32 262 -70 567 -38 305 -70 561 -70 568 0 6 9 12 20 12 11 0 20 -2 20 -4z
m1690 -21 c58 -30 90 -89 90 -167 0 -34 -3 -38 -25 -38 -24 0 -25 2 -25 63 0
53 -4 67 -22 84 -36 33 -63 43 -113 43 -50 0 -77 -10 -112 -43 l-23 -20 0
-477 0 -476 30 -29 c21 -21 42 -29 79 -33 63 -6 92 2 130 34 29 24 31 31 31
90 0 63 1 64 26 64 l27 0 -6 -67 c-4 -42 -14 -77 -25 -92 -66 -89 -249 -88
-316 3 -21 27 -21 39 -21 500 0 392 2 478 14 500 17 30 68 65 115 77 38 10
112 2 146 -16z m-720 -297 c87 -45 85 -35 85 -408 0 -316 -1 -330 -21 -356
-68 -92 -250 -92 -318 0 -20 26 -21 40 -21 356 0 316 1 330 21 357 30 41 99
73 159 73 33 0 66 -8 95 -22z m1240 0 c87 -45 85 -35 85 -408 0 -316 -1 -330
-21 -356 -68 -92 -250 -92 -318 0 -20 26 -21 40 -21 356 0 316 1 330 21 357
30 41 99 73 159 73 33 0 66 -8 95 -22z m-2111 -1142 c8 -9 11 -48 9 -112 l-3
-99 -29 -3 c-16 -2 -32 2 -37 10 -14 21 -11 192 3 206 16 16 43 15 57 -2z
m1049 2 c14 -14 17 -185 3 -206 -5 -8 -21 -12 -37 -10 l-29 3 -3 99 c-3 101 4
126 37 126 9 0 22 -5 29 -12z m1242 -7 c5 -11 10 -58 10 -104 0 -92 -10 -111
-52 -105 -22 3 -23 7 -26 102 -1 55 0 106 2 113 8 20 54 16 66 -6z"/>
<path d="M6924 13247 c-3 -8 -4 -45 -2 -83 l3 -69 210 0 210 0 0 80 0 80 -208
3 c-168 2 -208 0 -213 -11z m336 -72 l0 -75 -162 2 -163 3 -3 59 c-2 32 -1 65
2 72 4 11 40 14 166 14 l160 0 0 -75z"/>
<path d="M3413 6121 c-23 -11 -46 -28 -52 -39 -7 -14 -11 -130 -11 -340 0
-302 1 -321 20 -344 28 -37 72 -51 135 -46 44 4 62 11 85 33 l30 29 0 326 c0
359 1 353 -64 384 -45 21 -91 20 -143 -3z"/>
<path d="M4660 6124 c-71 -30 -70 -22 -70 -380 0 -304 1 -323 20 -346 28 -37
72 -51 135 -46 44 4 62 11 85 33 l30 29 0 324 c0 212 -4 330 -11 344 -13 25
-84 58 -124 57 -16 0 -46 -7 -65 -15z"/>
</g>
</svg>
