<?xml version="1.0" encoding="utf-8"?>
<!-- Generator: Adobe Illustrator 16.0.0, SVG Export Plug-In . SVG Version: 6.00 Build 0)  -->
<!DOCTYPE svg PUBLIC "-//W3C//DTD SVG 1.1//EN" "http://www.w3.org/Graphics/SVG/1.1/DTD/svg11.dtd">
<svg version="1.1" id="Layer_1" xmlns="http://www.w3.org/2000/svg" xmlns:xlink="http://www.w3.org/1999/xlink" x="0px" y="0px"
	 width="295.919px" height="306.576px" viewBox="0 0 295.919 306.576" enable-background="new 0 0 295.919 306.576"
	 xml:space="preserve">
<g>
	<g>
		<path fill="#FFFFFF" d="M96.392,220.768l-7.02-55.668h1.775l6.131,48.729c1.021-8.176,2.044-16.31,3.066-24.406
			c1.021-8.094,2.043-16.199,3.065-24.322h1.693l6.212,48.89c1.022-7.959,2.058-16.121,3.107-24.484
			c1.048-8.362,2.082-16.499,3.105-24.405h1.612l-7.018,55.668h-1.695l-6.212-48.648c-1.076,8.067-2.11,16.176-3.105,24.324
			c-0.996,8.146-2.004,16.256-3.023,24.324H96.392z"/>
		<path fill="#FFFFFF" d="M139.834,218.91c-1.642,1.239-3.672,1.857-6.091,1.857c-2.421,0-4.465-0.618-6.132-1.857
			c-1.668-1.238-2.501-2.797-2.501-4.68v-28.316c0-0.859,0.229-1.694,0.687-2.5c0.455-0.807,1.061-1.506,1.814-2.098
			c0.752-0.592,1.653-1.061,2.702-1.413c1.05-0.349,2.192-0.524,3.43-0.524c1.181,0,2.3,0.176,3.348,0.524
			c1.049,0.353,1.947,0.821,2.701,1.413s1.358,1.291,1.815,2.098c0.457,0.806,0.687,1.641,0.687,2.5v28.316
			C142.294,216.113,141.475,217.672,139.834,218.91z M128.86,217.941c1.318,1.023,2.946,1.533,4.883,1.533
			c1.882,0,3.495-0.51,4.84-1.533c1.344-1.021,2.017-2.259,2.017-3.711v-28.316c0-1.396-0.673-2.623-2.017-3.67
			c-1.345-1.049-2.958-1.574-4.84-1.574c-1.937,0-3.564,0.525-4.883,1.574c-1.316,1.047-1.976,2.273-1.976,3.67v28.316
			C126.885,215.683,127.544,216.921,128.86,217.941z"/>
		<path fill="#FFFFFF" d="M150.281,220.768v-4.681h1.694v4.681H150.281z"/>
		<path fill="#FFFFFF" d="M174.685,218.91c-1.642,1.239-3.672,1.857-6.092,1.857s-4.465-0.618-6.131-1.857
			c-1.669-1.238-2.5-2.797-2.5-4.68v-42.596c0-1.828,0.831-3.375,2.5-4.638c1.666-1.264,3.711-1.897,6.131-1.897
			c1.183,0,2.301,0.176,3.348,0.524c1.049,0.351,1.948,0.821,2.703,1.413c0.753,0.591,1.356,1.277,1.814,2.057
			c0.456,0.779,0.687,1.626,0.687,2.541v4.275h-1.694v-4.275c0-1.453-0.673-2.688-2.017-3.711c-1.346-1.021-2.959-1.534-4.841-1.534
			c-1.936,0-3.563,0.514-4.882,1.534c-1.317,1.022-1.976,2.258-1.976,3.711v42.596c0,1.452,0.658,2.69,1.976,3.711
			c1.318,1.023,2.946,1.533,4.882,1.533c1.882,0,3.495-0.51,4.841-1.533c1.344-1.021,2.017-2.259,2.017-3.711v-4.275h1.694v4.275
			C177.145,216.113,176.324,217.672,174.685,218.91z"/>
		<path fill="#FFFFFF" d="M199.935,218.91c-1.642,1.239-3.67,1.857-6.092,1.857c-2.421,0-4.464-0.618-6.131-1.857
			c-1.666-1.238-2.5-2.797-2.5-4.68v-28.316c0-0.859,0.228-1.694,0.685-2.5c0.458-0.807,1.062-1.506,1.815-2.098
			c0.753-0.592,1.654-1.061,2.703-1.413c1.048-0.349,2.191-0.524,3.428-0.524c1.183,0,2.3,0.176,3.348,0.524
			c1.051,0.353,1.95,0.821,2.704,1.413c0.752,0.592,1.356,1.291,1.814,2.098c0.458,0.806,0.686,1.641,0.686,2.5v28.316
			C202.395,216.113,201.575,217.672,199.935,218.91z M188.962,217.941c1.317,1.023,2.944,1.533,4.881,1.533
			c1.882,0,3.495-0.51,4.842-1.533c1.343-1.021,2.017-2.259,2.017-3.711v-28.316c0-1.396-0.674-2.623-2.017-3.67
			c-1.347-1.049-2.96-1.574-4.842-1.574c-1.937,0-3.563,0.525-4.881,1.574c-1.318,1.047-1.976,2.273-1.976,3.67v28.316
			C186.986,215.683,187.644,216.921,188.962,217.941z"/>
		<path fill="#FFFFFF" d="M210.381,220.768v-4.681h1.695v4.681H210.381z"/>
	</g>
	<g>
		<path fill="#FFFFFF" d="M81.703,246.255l-1.391-11.03h0.351l1.216,9.656c0.202-1.621,0.404-3.232,0.606-4.836
			c0.203-1.604,0.405-3.211,0.607-4.82h0.336l1.232,9.688c0.2-1.576,0.406-3.195,0.613-4.851c0.209-1.657,0.414-3.271,0.617-4.837
			h0.32l-1.393,11.03h-0.335l-1.231-9.639c-0.213,1.597-0.418,3.204-0.615,4.819c-0.197,1.613-0.397,3.22-0.6,4.819H81.703z"/>
		<path fill="#FFFFFF" d="M95.906,245.887c-0.325,0.246-0.728,0.368-1.206,0.368c-0.479,0-0.886-0.122-1.216-0.368
			c-0.329-0.244-0.496-0.553-0.496-0.925v-8.442c0-0.361,0.167-0.668,0.496-0.919c0.33-0.251,0.736-0.376,1.216-0.376
			c0.233,0,0.455,0.033,0.663,0.104c0.207,0.068,0.387,0.162,0.535,0.281c0.149,0.117,0.269,0.252,0.36,0.406
			c0.09,0.156,0.136,0.322,0.136,0.504v8.442C96.395,245.334,96.231,245.643,95.906,245.887z M93.732,245.697
			c0.261,0.201,0.585,0.302,0.968,0.302c0.372,0,0.692-0.101,0.958-0.302c0.266-0.204,0.4-0.448,0.4-0.735v-8.442
			c0-0.287-0.135-0.533-0.4-0.734c-0.266-0.203-0.586-0.305-0.958-0.305c-0.383,0-0.707,0.102-0.968,0.305
			c-0.262,0.201-0.392,0.447-0.392,0.734v8.442C93.341,245.249,93.471,245.493,93.732,245.697z"/>
		<path fill="#FFFFFF" d="M103.588,246.255v-11.03h1.552c0.233,0,0.456,0.033,0.662,0.104c0.21,0.068,0.389,0.162,0.544,0.281
			c0.153,0.117,0.277,0.252,0.367,0.406c0.092,0.156,0.136,0.322,0.136,0.504v2.941c0,0.255-0.094,0.484-0.279,0.688
			c-0.187,0.203-0.418,0.362-0.695,0.479c0.277,0.119,0.509,0.279,0.695,0.48c0.186,0.203,0.279,0.432,0.279,0.688v4.46h-0.351
			v-4.46c0-0.287-0.134-0.533-0.4-0.735s-0.585-0.304-0.958-0.304h-1.199v5.499H103.588z M105.14,240.5
			c0.373,0,0.691-0.099,0.958-0.296c0.267-0.196,0.4-0.444,0.4-0.743v-2.941c0-0.287-0.134-0.533-0.4-0.734
			c-0.267-0.203-0.585-0.305-0.958-0.305h-1.199v5.02H105.14z"/>
		<path fill="#FFFFFF" d="M117.13,246.255l-2.735-4.765v4.765h-0.352v-11.03h0.352v5.195l2.735-5.195h0.367l-3.039,5.754
			c0.503,0.864,1.008,1.744,1.52,2.639c0.512,0.896,1.019,1.774,1.52,2.638H117.13z"/>
		<path fill="#FFFFFF" d="M136.512,245.887c-0.325,0.246-0.727,0.368-1.208,0.368c-0.478,0-0.883-0.122-1.214-0.368
			c-0.33-0.244-0.495-0.553-0.495-0.925v-8.442c0-0.361,0.165-0.668,0.495-0.919c0.331-0.251,0.736-0.376,1.214-0.376
			c0.235,0,0.457,0.033,0.664,0.104c0.209,0.068,0.388,0.162,0.537,0.281c0.148,0.117,0.268,0.252,0.359,0.406
			c0.09,0.156,0.135,0.322,0.135,0.504v0.848h-0.334v-0.848c0-0.287-0.135-0.533-0.4-0.734c-0.267-0.203-0.587-0.305-0.961-0.305
			c-0.382,0-0.705,0.102-0.966,0.305c-0.262,0.201-0.392,0.447-0.392,0.734v8.442c0,0.287,0.13,0.531,0.392,0.735
			c0.261,0.201,0.584,0.302,0.966,0.302c0.374,0,0.694-0.101,0.961-0.302c0.266-0.204,0.4-0.448,0.4-0.735v-0.849h0.334v0.849
			C136.999,245.334,136.838,245.643,136.512,245.887z"/>
		<path fill="#FFFFFF" d="M146.76,245.887c-0.326,0.246-0.728,0.368-1.208,0.368c-0.479,0-0.885-0.122-1.214-0.368
			c-0.331-0.244-0.497-0.553-0.497-0.925v-8.442c0-0.361,0.166-0.668,0.497-0.919c0.329-0.251,0.734-0.376,1.214-0.376
			c0.235,0,0.455,0.033,0.664,0.104c0.207,0.068,0.388,0.162,0.536,0.281c0.148,0.117,0.267,0.252,0.359,0.406
			c0.091,0.156,0.137,0.322,0.137,0.504v8.442C147.248,245.334,147.085,245.643,146.76,245.887z M144.584,245.697
			c0.262,0.201,0.585,0.302,0.968,0.302c0.372,0,0.692-0.101,0.959-0.302c0.267-0.204,0.4-0.448,0.4-0.735v-8.442
			c0-0.287-0.134-0.533-0.4-0.734c-0.267-0.203-0.587-0.305-0.959-0.305c-0.383,0-0.706,0.102-0.968,0.305
			c-0.261,0.201-0.39,0.447-0.39,0.734v8.442C144.194,245.249,144.323,245.493,144.584,245.697z"/>
		<path fill="#FFFFFF" d="M154.44,246.287v-11.062h0.32l1.902,10.055c0.309-1.672,0.629-3.35,0.959-5.035
			c0.329-1.684,0.65-3.358,0.959-5.02h0.304v11.062h-0.32v-9.24c-0.299,1.557-0.591,3.094-0.879,4.611
			c-0.287,1.52-0.581,3.052-0.878,4.597h-0.288l-1.728-9.224v9.256H154.44z"/>
		<path fill="#FFFFFF" d="M166.094,246.255v-11.03h1.551c0.235,0,0.455,0.033,0.664,0.104c0.208,0.068,0.389,0.162,0.544,0.281
			c0.154,0.117,0.275,0.252,0.367,0.406c0.092,0.156,0.135,0.322,0.135,0.504v2.941c0,0.182-0.043,0.35-0.135,0.504
			s-0.213,0.29-0.367,0.407c-0.155,0.118-0.336,0.211-0.544,0.28c-0.209,0.069-0.429,0.104-0.664,0.104h-1.199v5.499H166.094z
			 M167.645,240.5c0.374,0,0.693-0.099,0.96-0.296c0.266-0.196,0.4-0.444,0.4-0.743v-2.941c0-0.287-0.135-0.533-0.4-0.734
			c-0.267-0.203-0.586-0.305-0.96-0.305h-1.199v5.02H167.645z"/>
		<path fill="#FFFFFF" d="M176.534,241.748c-0.096,0.734-0.19,1.486-0.287,2.252c-0.096,0.769-0.202,1.52-0.319,2.255h-0.368
			l1.551-11.03h0.337l1.533,11.03h-0.336l-0.623-4.507H176.534z M178.005,241.49c-0.063-0.457-0.125-0.889-0.183-1.294
			c-0.059-0.404-0.116-0.801-0.169-1.19s-0.108-0.789-0.167-1.199c-0.06-0.411-0.126-0.85-0.2-1.32
			c-0.117,0.854-0.232,1.686-0.344,2.494c-0.112,0.812-0.232,1.646-0.359,2.51H178.005z"/>
		<path fill="#FFFFFF" d="M185.711,246.255v-11.03h0.319l2.751,9.768v-9.768h0.319v11.03h-0.305l-2.734-9.752v9.752H185.711z"/>
		<path fill="#FFFFFF" d="M196.277,246.255v-11.048h0.336v11.048H196.277z"/>
		<path fill="#FFFFFF" d="M206.708,245.887c-0.325,0.246-0.727,0.368-1.208,0.368c-0.479,0-0.885-0.122-1.214-0.368
			c-0.33-0.244-0.497-0.553-0.497-0.925v-8.442c0-0.361,0.167-0.668,0.497-0.919c0.329-0.251,0.735-0.376,1.214-0.376
			c0.235,0,0.456,0.033,0.664,0.104c0.208,0.068,0.388,0.162,0.535,0.281c0.15,0.117,0.269,0.252,0.36,0.406
			c0.091,0.156,0.137,0.322,0.137,0.504v8.442C207.196,245.334,207.034,245.643,206.708,245.887z M204.533,245.697
			c0.262,0.201,0.585,0.302,0.967,0.302c0.373,0,0.693-0.101,0.959-0.302c0.267-0.204,0.401-0.448,0.401-0.735v-8.442
			c0-0.287-0.135-0.533-0.401-0.734c-0.266-0.203-0.586-0.305-0.959-0.305c-0.382,0-0.705,0.102-0.967,0.305
			c-0.261,0.201-0.391,0.447-0.391,0.734v8.442C204.143,245.249,204.272,245.493,204.533,245.697z"/>
		<path fill="#FFFFFF" d="M214.39,246.255v-11.03h0.319l2.75,9.768v-9.768h0.32v11.03h-0.305l-2.733-9.752v9.752H214.39z"/>
	</g>
	<g>
		<path fill-rule="evenodd" clip-rule="evenodd" fill="#FFFFFF" d="M160.52,100.648c-5.458-0.135-10.92-0.097-16.38-0.155
			c-2.053-0.024-3.177,1.104-3.654,2.954c-0.53,2.053-4.324,11.799-6.208,19.682c-0.976,4.094-1.771,7.463-2.003,8.54
			c-0.678,3.151,0.042,7.157-0.543,10.327c0.28,0.102,0.559,0.197,0.836,0.299c0.474-0.766,1.173-1.473,1.388-2.305
			c0.766-2.994,1.897-13.451,3.942-22.018c1.469-6.168,4.007-10.959,4.433-13.141c0.363-1.854,1.167-2.488,2.779-2.475
			c5.136,0.039,10.279,0.283,15.41,0.199V100.648z"/>
		<path fill-rule="evenodd" clip-rule="evenodd" fill="#FFFFFF" d="M214.861,71.758c-3.38,1.089-6.798,2.149-10.037,3.598
			c-6.669,2.978-13.876,4.785-21.069,6.146c-4.12,0.778-8.008,0.979-12.09,1.932c-3.57,0.83-7.212,0.968-10.816,1.559
			c-0.219,0.038-0.438,0.063-0.657,0.095l-0.077,2.023c10.641-2.16,21.63-2.552,32.221-4.955c2.321-0.525,4.604-1.346,6.799-2.283
			c4.062-1.732,8.02-3.707,12.08-5.441c0.735-0.312,1.755,0.045,2.641,0.094c-0.312,0.848-0.406,1.896-0.973,2.514
			c-2.915,3.208-6.754,4.604-10.938,5.246c-0.911,0.141-1.789,0.472-3.115,0.832c2.737,2.35,2.48,4.883,1.84,7.561
			c-2.046,8.551-2.609,34.654-1.628,43.385c0.285,2.533-0.31,5.168-0.5,7.756c-0.335,0.045-0.666,0.092-0.997,0.141
			c-0.604-0.982-1.531-1.896-1.755-2.959c-1.007-4.748-1.501-27.009-2.367-31.785c-0.296-1.641-0.494-3.565-2.304-4.049
			c-3.022-0.806-6.137-1.341-9.244-1.713c-2.453-0.291-4.984,0.069-7.427-0.26c-4.658-0.635-9.299-0.837-13.927-0.729v2.115
			c8.47-0.168,16.938,0.294,25.392,1.094c4.368,0.414,5.876,2.326,6.134,6.746c0.186,3.206,0.073,23.965,0.943,27.025
			c0.621,2.184,2.142,4.23,3.658,5.998c1.284,1.494,3.406,0.744,3.612-1.248c0.35-3.344,0.355-6.727,0.46-10.094
			c0.173-5.613,0.472-28.709,0.831-34.31c0.29-4.462,1.027-8.897,1.629-13.862c4.106-0.871,8.396-2.503,11.331-6.307
			c0.979-1.268,1.352-3.052,1.783-4.66C216.368,72.686,215.2,71.648,214.861,71.758z"/>
		<path fill-rule="evenodd" clip-rule="evenodd" fill="#FFFFFF" d="M144.68,82.609c-5.112-0.871-10.025-2.893-15.04-4.355
			c-1.611-0.468-2.429-1.323-2.638-3.121c-0.465-3.972,2.338-15.004-2.581-11.596c-2.381,1.648-11.746,10.191-14.02,12.005
			c-3.427,2.735-6.723,5.708-10.432,8.003c-4.307,2.664-9.054,4.608-13.51,7.051c-4.045,2.216-4.014,3.826-7.909,6.297
			c-0.682,0.434-0.894,1.609-1.32,2.438c0.604,0.244,1.2,0.528,1.822,0.72c0.644,0.197,1.313,0.307,1.974,0.439
			c4.239,0.869,4.439,1.826,8.75,0.866c5.531-1.229,11.139-2.183,16.762-2.906c2.347-0.303,2.801-0.037,4.239,0.198
			c0.261,0.342,0.938,0.486,1.266,0.762c0.854,0.723,1.167,1.888,1.547,2.896c0.396,1.043,0.572,2.059,0.581,3.195
			c0.246,0.07,0.488,0.186,0.705,0.332c0.003-2.533,0.433-4.828-0.962-7.154c-0.499-0.834-1.872-1.801-2.976-1.978
			c0-0.015-1.725-0.024-3.663-0.175c-3.426-0.267-6.688-0.146-9.831,1.529c-0.641,0.342-1.826-0.338-2.876-0.571
			c-5.258,3.679-7.273,1.677-13.595,0.491c0.809-0.726,1.521-1.628,2.446-2.148c4.636-2.602,5.352-4.299,10.02-6.846
			c3.949-2.158,8.077-4.061,11.774-6.589c3.123-2.134,5.681-5.083,8.605-7.526c1.767-1.471,9.452-7.645,10.96-9.344
			c1.338-1.508,0.618,1.941,0.804,2.979c0.344,1.918-1.075,6.385-0.257,8.021c0.86,2.681,2.349,2.763,3.293,3.664
			c4.29,1.369,7.985,3.087,11.855,3.683c6.683,1.025,13.315,2.517,20.045,3.221v-2.004C155.22,84.449,149.947,83.512,144.68,82.609z
			"/>
		<path fill-rule="evenodd" clip-rule="evenodd" fill="#FFFFFF" d="M103.358,83.426c1.689-2,3.23-4.164,4.974-6.12
			c1.53-1.716,7.312-8.772,8.551-10.673c1.103-1.688,1.813,1.648,2.148,2.648c0.086,0.254,0.144,0.566,0.188,0.912
			c0.554-0.442,1.062-0.843,1.507-1.189c-0.309-3.759-1.84-6.768-4.487-4.285c-2.114,1.98-9.206,11.625-11.188,13.756
			c-2.83,3.039-5.517,6.262-8.618,8.986C98.482,86.35,100.981,84.932,103.358,83.426z"/>
	</g>
</g>
</svg>
