<?xml version="1.0" encoding="utf-8"?>
<!-- Generator: Adobe Illustrator 16.0.0, SVG Export Plug-In . SVG Version: 6.00 Build 0)  -->
<!DOCTYPE svg PUBLIC "-//W3C//DTD SVG 1.1//EN" "http://www.w3.org/Graphics/SVG/1.1/DTD/svg11.dtd">
<svg version="1.1" id="Layer_1" xmlns="http://www.w3.org/2000/svg" xmlns:xlink="http://www.w3.org/1999/xlink" x="0px" y="0px"
	 width="841.889px" height="267.005px" viewBox="0 0 841.889 267.005" enable-background="new 0 0 841.889 267.005"
	 xml:space="preserve">
<rect fill="#454546" width="841.889" height="267.005"/>
<g>
	<path fill="#4F5150" stroke="#4F5150" stroke-miterlimit="10" d="M707.258,238.93l-6.19-49.091h1.565l5.406,42.972
		c0.901-7.209,1.803-14.382,2.704-21.522c0.9-7.137,1.802-14.285,2.703-21.449h1.493l5.479,43.114
		c0.9-7.019,1.813-14.217,2.74-21.592c0.924-7.374,1.836-14.55,2.738-21.522h1.422l-6.189,49.091h-1.494l-5.478-42.9
		c-0.95,7.115-1.861,14.265-2.739,21.45c-0.878,7.185-1.768,14.336-2.666,21.45H707.258z"/>
	<path fill="#4F5150" stroke="#4F5150" stroke-miterlimit="10" d="M745.566,237.293c-1.447,1.092-3.238,1.637-5.371,1.637
		c-2.135,0-3.938-0.545-5.408-1.637s-2.205-2.467-2.205-4.127v-24.971c0-0.758,0.202-1.495,0.605-2.206
		c0.401-0.71,0.936-1.326,1.6-1.85c0.664-0.521,1.459-0.935,2.384-1.245c0.925-0.308,1.933-0.462,3.024-0.462
		c1.041,0,2.027,0.154,2.951,0.462c0.926,0.311,1.718,0.724,2.383,1.245c0.665,0.523,1.197,1.14,1.602,1.85
		c0.402,0.711,0.605,1.448,0.605,2.206v24.971C747.736,234.826,747.013,236.201,745.566,237.293z M735.89,236.438
		c1.163,0.901,2.598,1.352,4.306,1.352c1.659,0,3.082-0.45,4.268-1.352c1.186-0.9,1.778-1.992,1.778-3.272v-24.971
		c0-1.232-0.593-2.313-1.778-3.237s-2.608-1.388-4.268-1.388c-1.708,0-3.143,0.464-4.306,1.388
		c-1.161,0.924-1.742,2.005-1.742,3.237v24.971C734.147,234.446,734.729,235.538,735.89,236.438z"/>
	<path fill="#4F5150" stroke="#4F5150" stroke-miterlimit="10" d="M754.779,238.93v-4.127h1.494v4.127H754.779z"/>
	<path fill="#4F5150" stroke="#4F5150" stroke-miterlimit="10" d="M776.299,237.293c-1.447,1.092-3.238,1.637-5.371,1.637
		c-2.135,0-3.938-0.545-5.406-1.637c-1.473-1.092-2.206-2.467-2.206-4.127v-37.562c0-1.612,0.733-2.977,2.206-4.091
		c1.469-1.113,3.271-1.674,5.406-1.674c1.042,0,2.027,0.156,2.951,0.464c0.926,0.31,1.718,0.724,2.384,1.245
		c0.664,0.521,1.196,1.127,1.601,1.814c0.402,0.688,0.605,1.434,0.605,2.241v3.77h-1.495v-3.77c0-1.282-0.593-2.372-1.778-3.272
		s-2.608-1.354-4.268-1.354c-1.708,0-3.143,0.453-4.306,1.354c-1.161,0.9-1.742,1.99-1.742,3.272v37.562
		c0,1.28,0.581,2.372,1.742,3.272c1.163,0.901,2.598,1.352,4.306,1.352c1.659,0,3.082-0.45,4.268-1.352
		c1.186-0.9,1.778-1.992,1.778-3.272v-3.771h1.495v3.771C778.469,234.826,777.745,236.201,776.299,237.293z"/>
	<path fill="#4F5150" stroke="#4F5150" stroke-miterlimit="10" d="M798.565,237.293c-1.448,1.092-3.235,1.637-5.372,1.637
		c-2.135,0-3.936-0.545-5.406-1.637c-1.47-1.092-2.205-2.467-2.205-4.127v-24.971c0-0.758,0.201-1.495,0.604-2.206
		c0.403-0.71,0.937-1.326,1.601-1.85c0.664-0.521,1.459-0.935,2.384-1.245c0.924-0.308,1.932-0.462,3.022-0.462
		c1.043,0,2.028,0.154,2.952,0.462c0.927,0.311,1.72,0.724,2.385,1.245c0.663,0.523,1.196,1.14,1.601,1.85
		c0.403,0.711,0.604,1.448,0.604,2.206v24.971C800.734,234.826,800.013,236.201,798.565,237.293z M788.89,236.438
		c1.161,0.901,2.597,1.352,4.304,1.352c1.66,0,3.082-0.45,4.27-1.352c1.184-0.9,1.778-1.992,1.778-3.272v-24.971
		c0-1.232-0.595-2.313-1.778-3.237c-1.188-0.924-2.609-1.388-4.27-1.388c-1.707,0-3.143,0.464-4.304,1.388
		c-1.163,0.924-1.742,2.005-1.742,3.237v24.971C787.147,234.446,787.727,235.538,788.89,236.438z"/>
	<path fill="#4F5150" stroke="#4F5150" stroke-miterlimit="10" d="M807.777,238.93v-4.127h1.495v4.127H807.777z"/>
</g>
<g>
	
		<path fill-rule="evenodd" clip-rule="evenodd" fill="none" stroke="#808285" stroke-width="1.25" stroke-miterlimit="10" stroke-dasharray="2,2" d="
		M0,175.825h239.521c0,0,35.622,6.131,36.807-11.404c1.16-17.525-7.047-22.125-42.271-22.125c-17.601,0-34.07,0-34.07,0
		s-31.693-6.463-29.345-29.523C172.982,89.7,195.3,89.7,205.869,89.7c10.588,0,636.02,0,636.02,0"/>
</g>
</svg>
